<?xml version="1.0" encoding="UTF-8"?>
<svg width="24.006" height="24.407" version="1.1" viewBox="0 0 24.006 24.407" xmlns="http://www.w3.org/2000/svg">
 <g id="Steam" transform="translate(-8 -7.5985)">
  <path d="m32 20a12 12 0 0 1-23.48 3.5l4.54 1.87a3.32 3.32 0 0 0 6.32 0.56 3.41 3.41 0 0 0 0.26-1.37l4.2-3h0.1a4.57 4.57 0 1 0-4.56-4.56v0.06l-2.93 4.27a3.43 3.43 0 0 0-2 0.54l-6.45-2.66a12.006 12.006 0 0 1 24 0.79zm-16.52 6.38-1.48-0.62a2.56 2.56 0 0 0 4.68-0.12 2.59 2.59 0 0 0 0-2 2.54 2.54 0 0 0-1.38-1.39 2.5 2.5 0 0 0-1.9 0l1.54 0.63a1.9 1.9 0 0 1-1.46 3.5zm8.46-6.38a3 3 0 1 1 3.06-3 3.05 3.05 0 0 1-3.06 3zm0-0.77a2.29 2.29 0 1 0-2.28-2.23 2.29 2.29 0 0 0 2.28 2.27z"/>
 </g>
</svg>
